<svg viewBox="0 0 143 153" fill="none" xmlns="http://www.w3.org/2000/svg">
<mask id="path-1-outside-1_58_571" maskUnits="userSpaceOnUse" x="0.388672" y="0" width="143" height="153" fill="black">
<rect fill="white" x="0.388672" width="143" height="153"/>
<path d="M88.7619 69.1177C87.5834 72.9705 88.0158 77.2197 89.7386 80.849C91.6235 84.8207 92.9715 83.6025 96.7233 84.6766C129.092 93.9354 141.017 113.513 142.073 146.728C142.156 149.373 142.311 154.354 138.887 150.635C138.03 130.409 134.602 108.91 116.578 96.8944C111.846 93.7372 105.132 90.6665 99.7111 88.8933C98.1037 88.3671 91.9767 86.5219 90.7009 86.7165C89.5584 86.8931 89.3241 89.3294 88.888 90.335C83.6225 102.419 69.6639 111.246 56.4946 106.604C53.514 112.323 50.7425 117.25 44.3776 119.708C42.9468 120.26 38.0993 120.988 37.7101 121.33C37.3857 121.615 36.0738 124.574 36.0738 125.122C36.0738 126.477 37.9011 129.955 38.157 132.07C38.867 137.941 36.4919 142.165 35.4756 147.568C35.2053 149.002 35.9297 151.687 33.6988 151.896C31.2444 152.123 31.976 148.263 32.2247 146.84C33.2338 141.073 35.2737 138.244 34.6106 131.652C34.3835 129.4 32.6644 125.842 32.823 124.037C32.9419 122.692 36.2973 117.229 36.9893 115.203C37.4542 113.844 39.0112 109.246 36.6181 109.065C34.7511 108.925 30.8083 115.124 29.9073 116.767C29.0855 118.27 26.9087 124.667 25.7698 124.88C24.9372 125.035 23.8452 123.957 23.8524 123.006C23.8668 121.348 26.1374 116.947 27.0204 115.326C28.1088 113.333 33.7132 105.851 33.3924 104.358L32.8554 103.49C30.8515 102.297 28.1413 105.533 26.8979 106.914C23.3442 110.857 20.7637 115.646 18.9833 120.624C18.1111 121.532 16.3487 120.602 16.0604 119.546C15.5486 117.683 20.5691 109.891 21.8882 108.031C23.0163 106.442 26.6059 102.751 27.1213 101.342C27.6835 99.8101 26.8258 98.7721 25.1895 99.0496C22.3387 99.5362 17.0912 106.755 15.6171 109.332C14.6728 110.983 12.6689 117.585 10.5065 116.49C8.64679 114.634 11.3499 110.374 12.4779 108.355C14.5863 104.585 17.0479 102.373 19.5023 99.1613C22.5153 95.2257 21.1277 91.3189 16.2983 94.8761C8.41613 100.679 3.93626 113.369 4.77962 122.909C5.28419 128.621 9.68116 135.912 9.43248 140.27C9.23786 143.679 7.27364 147.55 6.84115 151.013C6.40145 151.907 4.90576 151.828 4.17413 151.273C3.18661 149.864 5.83922 142.983 6.07708 140.879C6.52399 136.889 4.4156 134.827 3.28392 131.259C-0.129141 120.49 1.04939 110.237 6.96729 100.682C7.56917 99.7128 9.86858 97.2836 10.0668 96.5736C10.4921 95.0527 10.2506 92.2163 10.5389 90.5584C11.1733 86.9219 13.2384 84.2657 15.9018 81.869C11.7932 78.2937 5.53287 75.5258 13.916 72.3074C16.7812 71.2081 20.0321 70.3828 23.1136 70.5125C22.3603 67.4743 20.9836 64.6126 20.3997 61.5167C17.7651 47.5906 22.9658 27.0293 31.6156 15.7629C52.6418 -11.6173 99.8048 1.27454 102.411 36.4612C102.591 38.8939 101.812 42.999 102.043 44.7253C102.137 45.4353 104.029 47.3887 104.476 48.8088C107.226 57.5775 98.8425 71.3234 88.7619 69.1141V69.1177ZM98.8101 43.1287C102.616 5.16695 50.5658 -10.6586 31.3525 22.3404C24.6309 33.8843 20.6412 52.5065 24.8255 65.3947C25.2436 66.6778 26.6167 70.1773 27.4421 71.0676C28.6314 72.347 31.9652 73.1759 33.0356 75.1978C34.297 73.6733 34.762 72.3506 34.6142 70.3864C34.4232 67.7987 31.5687 63.6143 35.1404 63.0305C37.638 63.7909 36.6325 66.9805 38.4922 68.3068C41.9809 70.7936 49.5747 71.2261 53.3374 69.0204C53.5104 67.2472 52.8184 63.0953 55.4133 62.9656C58.2714 62.8214 56.7396 64.7928 56.6712 66.0471C56.5666 67.9284 56.527 69.8133 57.1865 71.601C57.601 72.7182 59.3382 74.1418 57.9939 75.4789C55.8494 77.6198 54.7934 73.2084 53.568 73.0246C52.613 72.8804 50.7641 73.6769 49.6072 73.7598C45.6319 74.0373 42.2837 73.3561 38.5066 72.3001C37.2668 74.4734 34.9962 76.4124 35.3783 79.1695C39.249 77.2702 43.6388 76.5818 47.7222 78.1784C51.5245 79.6633 54.2925 82.8961 56.1594 86.3957C59.7202 86.4209 63.6667 85.3866 66.8599 83.808C68.3232 83.0872 71.9849 79.7534 73.2211 81.1482C75.1385 83.3106 69.9702 86.0209 68.4169 86.8102C66.8635 87.5995 64.9101 88.3095 63.2018 88.8032C61.6772 89.2429 59.54 89.279 58.3182 89.6862C57.8749 89.834 57.738 90.0791 57.7127 90.5296C57.8425 92.9443 58.2389 95.3122 58.0912 97.7522C58.0191 98.9631 57.0424 102.636 57.5181 103.338C68.1033 107.797 82.2025 98.7613 85.8967 88.796C88.0267 83.0475 86.3219 83.1448 85.2731 78.1063C84.6316 75.0176 84.6028 72.0947 85.1975 68.9952C86.5021 62.2159 88.178 66.5048 92.4705 65.8164C98.7344 64.8109 106.209 49.5152 97.8189 46.4553C92.9787 44.6893 91.656 48.8592 88.9457 48.1997C88.2789 48.0375 88.3294 46.3472 88.5781 45.7489C89.5476 43.4279 96.4998 42.0511 98.792 43.1395L98.8101 43.1287ZM14.1178 75.569C13.6673 76.2178 17.1056 78.8992 17.7507 79.3137C21.8882 81.9843 27.1934 82.2078 31.3957 79.6597C29.2513 72.4515 19.7077 72.0947 14.1178 75.5654V75.569ZM39.7068 117.366C52.8977 115.463 58.967 96.1483 51.9678 85.8227C48.6016 80.8562 43.3253 79.2632 37.775 81.7392C34.8953 83.0223 34.7115 83.5413 33.9582 86.5759C33.8357 87.0733 33.9763 87.2391 34.4736 87.0877C35.8107 86.684 37.7281 84.6081 39.0869 84.9829C42.0746 87.3111 37.6993 89.3078 35.7351 90.1512C34.3006 90.7675 29.0783 92.7749 27.9863 91.7838C25.8671 89.8628 31.6336 86.5579 31.4138 84.208C29.3883 84.8459 27.215 85.055 25.0958 84.9433C23.4415 84.8532 19.5383 83.5269 18.4535 84.0278C16.81 84.7883 12.6437 91.3297 13.7646 92.8578C18.3994 89.0988 24.0218 89.0735 24.5876 96.0871C26.5086 96.1087 28.5521 95.7699 29.9325 97.4134C30.419 97.9936 30.6785 99.2406 31.0678 99.5218C31.5147 99.8461 32.4698 99.7668 33.0608 100.052C35.3422 101.136 36.546 102.859 36.4919 105.45C43.073 106.06 40.8853 113.059 39.7104 117.366H39.7068Z"/>
</mask>
<path d="M88.7619 69.1177C87.5834 72.9705 88.0158 77.2197 89.7386 80.849C91.6235 84.8207 92.9715 83.6025 96.7233 84.6766C129.092 93.9354 141.017 113.513 142.073 146.728C142.156 149.373 142.311 154.354 138.887 150.635C138.03 130.409 134.602 108.91 116.578 96.8944C111.846 93.7372 105.132 90.6665 99.7111 88.8933C98.1037 88.3671 91.9767 86.5219 90.7009 86.7165C89.5584 86.8931 89.3241 89.3294 88.888 90.335C83.6225 102.419 69.6639 111.246 56.4946 106.604C53.514 112.323 50.7425 117.25 44.3776 119.708C42.9468 120.26 38.0993 120.988 37.7101 121.33C37.3857 121.615 36.0738 124.574 36.0738 125.122C36.0738 126.477 37.9011 129.955 38.157 132.07C38.867 137.941 36.4919 142.165 35.4756 147.568C35.2053 149.002 35.9297 151.687 33.6988 151.896C31.2444 152.123 31.976 148.263 32.2247 146.84C33.2338 141.073 35.2737 138.244 34.6106 131.652C34.3835 129.4 32.6644 125.842 32.823 124.037C32.9419 122.692 36.2973 117.229 36.9893 115.203C37.4542 113.844 39.0112 109.246 36.6181 109.065C34.7511 108.925 30.8083 115.124 29.9073 116.767C29.0855 118.27 26.9087 124.667 25.7698 124.88C24.9372 125.035 23.8452 123.957 23.8524 123.006C23.8668 121.348 26.1374 116.947 27.0204 115.326C28.1088 113.333 33.7132 105.851 33.3924 104.358L32.8554 103.49C30.8515 102.297 28.1413 105.533 26.8979 106.914C23.3442 110.857 20.7637 115.646 18.9833 120.624C18.1111 121.532 16.3487 120.602 16.0604 119.546C15.5486 117.683 20.5691 109.891 21.8882 108.031C23.0163 106.442 26.6059 102.751 27.1213 101.342C27.6835 99.8101 26.8258 98.7721 25.1895 99.0496C22.3387 99.5362 17.0912 106.755 15.6171 109.332C14.6728 110.983 12.6689 117.585 10.5065 116.49C8.64679 114.634 11.3499 110.374 12.4779 108.355C14.5863 104.585 17.0479 102.373 19.5023 99.1613C22.5153 95.2257 21.1277 91.3189 16.2983 94.8761C8.41613 100.679 3.93626 113.369 4.77962 122.909C5.28419 128.621 9.68116 135.912 9.43248 140.27C9.23786 143.679 7.27364 147.55 6.84115 151.013C6.40145 151.907 4.90576 151.828 4.17413 151.273C3.18661 149.864 5.83922 142.983 6.07708 140.879C6.52399 136.889 4.4156 134.827 3.28392 131.259C-0.129141 120.49 1.04939 110.237 6.96729 100.682C7.56917 99.7128 9.86858 97.2836 10.0668 96.5736C10.4921 95.0527 10.2506 92.2163 10.5389 90.5584C11.1733 86.9219 13.2384 84.2657 15.9018 81.869C11.7932 78.2937 5.53287 75.5258 13.916 72.3074C16.7812 71.2081 20.0321 70.3828 23.1136 70.5125C22.3603 67.4743 20.9836 64.6126 20.3997 61.5167C17.7651 47.5906 22.9658 27.0293 31.6156 15.7629C52.6418 -11.6173 99.8048 1.27454 102.411 36.4612C102.591 38.8939 101.812 42.999 102.043 44.7253C102.137 45.4353 104.029 47.3887 104.476 48.8088C107.226 57.5775 98.8425 71.3234 88.7619 69.1141V69.1177ZM98.8101 43.1287C102.616 5.16695 50.5658 -10.6586 31.3525 22.3404C24.6309 33.8843 20.6412 52.5065 24.8255 65.3947C25.2436 66.6778 26.6167 70.1773 27.4421 71.0676C28.6314 72.347 31.9652 73.1759 33.0356 75.1978C34.297 73.6733 34.762 72.3506 34.6142 70.3864C34.4232 67.7987 31.5687 63.6143 35.1404 63.0305C37.638 63.7909 36.6325 66.9805 38.4922 68.3068C41.9809 70.7936 49.5747 71.2261 53.3374 69.0204C53.5104 67.2472 52.8184 63.0953 55.4133 62.9656C58.2714 62.8214 56.7396 64.7928 56.6712 66.0471C56.5666 67.9284 56.527 69.8133 57.1865 71.601C57.601 72.7182 59.3382 74.1418 57.9939 75.4789C55.8494 77.6198 54.7934 73.2084 53.568 73.0246C52.613 72.8804 50.7641 73.6769 49.6072 73.7598C45.6319 74.0373 42.2837 73.3561 38.5066 72.3001C37.2668 74.4734 34.9962 76.4124 35.3783 79.1695C39.249 77.2702 43.6388 76.5818 47.7222 78.1784C51.5245 79.6633 54.2925 82.8961 56.1594 86.3957C59.7202 86.4209 63.6667 85.3866 66.8599 83.808C68.3232 83.0872 71.9849 79.7534 73.2211 81.1482C75.1385 83.3106 69.9702 86.0209 68.4169 86.8102C66.8635 87.5995 64.9101 88.3095 63.2018 88.8032C61.6772 89.2429 59.54 89.279 58.3182 89.6862C57.8749 89.834 57.738 90.0791 57.7127 90.5296C57.8425 92.9443 58.2389 95.3122 58.0912 97.7522C58.0191 98.9631 57.0424 102.636 57.5181 103.338C68.1033 107.797 82.2025 98.7613 85.8967 88.796C88.0267 83.0475 86.3219 83.1448 85.2731 78.1063C84.6316 75.0176 84.6028 72.0947 85.1975 68.9952C86.5021 62.2159 88.178 66.5048 92.4705 65.8164C98.7344 64.8109 106.209 49.5152 97.8189 46.4553C92.9787 44.6893 91.656 48.8592 88.9457 48.1997C88.2789 48.0375 88.3294 46.3472 88.5781 45.7489C89.5476 43.4279 96.4998 42.0511 98.792 43.1395L98.8101 43.1287ZM14.1178 75.569C13.6673 76.2178 17.1056 78.8992 17.7507 79.3137C21.8882 81.9843 27.1934 82.2078 31.3957 79.6597C29.2513 72.4515 19.7077 72.0947 14.1178 75.5654V75.569ZM39.7068 117.366C52.8977 115.463 58.967 96.1483 51.9678 85.8227C48.6016 80.8562 43.3253 79.2632 37.775 81.7392C34.8953 83.0223 34.7115 83.5413 33.9582 86.5759C33.8357 87.0733 33.9763 87.2391 34.4736 87.0877C35.8107 86.684 37.7281 84.6081 39.0869 84.9829C42.0746 87.3111 37.6993 89.3078 35.7351 90.1512C34.3006 90.7675 29.0783 92.7749 27.9863 91.7838C25.8671 89.8628 31.6336 86.5579 31.4138 84.208C29.3883 84.8459 27.215 85.055 25.0958 84.9433C23.4415 84.8532 19.5383 83.5269 18.4535 84.0278C16.81 84.7883 12.6437 91.3297 13.7646 92.8578C18.3994 89.0988 24.0218 89.0735 24.5876 96.0871C26.5086 96.1087 28.5521 95.7699 29.9325 97.4134C30.419 97.9936 30.6785 99.2406 31.0678 99.5218C31.5147 99.8461 32.4698 99.7668 33.0608 100.052C35.3422 101.136 36.546 102.859 36.4919 105.45C43.073 106.06 40.8853 113.059 39.7104 117.366H39.7068Z" fill="#0F7D19"/>
<path d="M88.7619 69.1177C87.5834 72.9705 88.0158 77.2197 89.7386 80.849C91.6235 84.8207 92.9715 83.6025 96.7233 84.6766C129.092 93.9354 141.017 113.513 142.073 146.728C142.156 149.373 142.311 154.354 138.887 150.635C138.03 130.409 134.602 108.91 116.578 96.8944C111.846 93.7372 105.132 90.6665 99.7111 88.8933C98.1037 88.3671 91.9767 86.5219 90.7009 86.7165C89.5584 86.8931 89.3241 89.3294 88.888 90.335C83.6225 102.419 69.6639 111.246 56.4946 106.604C53.514 112.323 50.7425 117.25 44.3776 119.708C42.9468 120.26 38.0993 120.988 37.7101 121.33C37.3857 121.615 36.0738 124.574 36.0738 125.122C36.0738 126.477 37.9011 129.955 38.157 132.07C38.867 137.941 36.4919 142.165 35.4756 147.568C35.2053 149.002 35.9297 151.687 33.6988 151.896C31.2444 152.123 31.976 148.263 32.2247 146.84C33.2338 141.073 35.2737 138.244 34.6106 131.652C34.3835 129.4 32.6644 125.842 32.823 124.037C32.9419 122.692 36.2973 117.229 36.9893 115.203C37.4542 113.844 39.0112 109.246 36.6181 109.065C34.7511 108.925 30.8083 115.124 29.9073 116.767C29.0855 118.27 26.9087 124.667 25.7698 124.88C24.9372 125.035 23.8452 123.957 23.8524 123.006C23.8668 121.348 26.1374 116.947 27.0204 115.326C28.1088 113.333 33.7132 105.851 33.3924 104.358L32.8554 103.49C30.8515 102.297 28.1413 105.533 26.8979 106.914C23.3442 110.857 20.7637 115.646 18.9833 120.624C18.1111 121.532 16.3487 120.602 16.0604 119.546C15.5486 117.683 20.5691 109.891 21.8882 108.031C23.0163 106.442 26.6059 102.751 27.1213 101.342C27.6835 99.8101 26.8258 98.7721 25.1895 99.0496C22.3387 99.5362 17.0912 106.755 15.6171 109.332C14.6728 110.983 12.6689 117.585 10.5065 116.49C8.64679 114.634 11.3499 110.374 12.4779 108.355C14.5863 104.585 17.0479 102.373 19.5023 99.1613C22.5153 95.2257 21.1277 91.3189 16.2983 94.8761C8.41613 100.679 3.93626 113.369 4.77962 122.909C5.28419 128.621 9.68116 135.912 9.43248 140.27C9.23786 143.679 7.27364 147.55 6.84115 151.013C6.40145 151.907 4.90576 151.828 4.17413 151.273C3.18661 149.864 5.83922 142.983 6.07708 140.879C6.52399 136.889 4.4156 134.827 3.28392 131.259C-0.129141 120.49 1.04939 110.237 6.96729 100.682C7.56917 99.7128 9.86858 97.2836 10.0668 96.5736C10.4921 95.0527 10.2506 92.2163 10.5389 90.5584C11.1733 86.9219 13.2384 84.2657 15.9018 81.869C11.7932 78.2937 5.53287 75.5258 13.916 72.3074C16.7812 71.2081 20.0321 70.3828 23.1136 70.5125C22.3603 67.4743 20.9836 64.6126 20.3997 61.5167C17.7651 47.5906 22.9658 27.0293 31.6156 15.7629C52.6418 -11.6173 99.8048 1.27454 102.411 36.4612C102.591 38.8939 101.812 42.999 102.043 44.7253C102.137 45.4353 104.029 47.3887 104.476 48.8088C107.226 57.5775 98.8425 71.3234 88.7619 69.1141V69.1177ZM98.8101 43.1287C102.616 5.16695 50.5658 -10.6586 31.3525 22.3404C24.6309 33.8843 20.6412 52.5065 24.8255 65.3947C25.2436 66.6778 26.6167 70.1773 27.4421 71.0676C28.6314 72.347 31.9652 73.1759 33.0356 75.1978C34.297 73.6733 34.762 72.3506 34.6142 70.3864C34.4232 67.7987 31.5687 63.6143 35.1404 63.0305C37.638 63.7909 36.6325 66.9805 38.4922 68.3068C41.9809 70.7936 49.5747 71.2261 53.3374 69.0204C53.5104 67.2472 52.8184 63.0953 55.4133 62.9656C58.2714 62.8214 56.7396 64.7928 56.6712 66.0471C56.5666 67.9284 56.527 69.8133 57.1865 71.601C57.601 72.7182 59.3382 74.1418 57.9939 75.4789C55.8494 77.6198 54.7934 73.2084 53.568 73.0246C52.613 72.8804 50.7641 73.6769 49.6072 73.7598C45.6319 74.0373 42.2837 73.3561 38.5066 72.3001C37.2668 74.4734 34.9962 76.4124 35.3783 79.1695C39.249 77.2702 43.6388 76.5818 47.7222 78.1784C51.5245 79.6633 54.2925 82.8961 56.1594 86.3957C59.7202 86.4209 63.6667 85.3866 66.8599 83.808C68.3232 83.0872 71.9849 79.7534 73.2211 81.1482C75.1385 83.3106 69.9702 86.0209 68.4169 86.8102C66.8635 87.5995 64.9101 88.3095 63.2018 88.8032C61.6772 89.2429 59.54 89.279 58.3182 89.6862C57.8749 89.834 57.738 90.0791 57.7127 90.5296C57.8425 92.9443 58.2389 95.3122 58.0912 97.7522C58.0191 98.9631 57.0424 102.636 57.5181 103.338C68.1033 107.797 82.2025 98.7613 85.8967 88.796C88.0267 83.0475 86.3219 83.1448 85.2731 78.1063C84.6316 75.0176 84.6028 72.0947 85.1975 68.9952C86.5021 62.2159 88.178 66.5048 92.4705 65.8164C98.7344 64.8109 106.209 49.5152 97.8189 46.4553C92.9787 44.6893 91.656 48.8592 88.9457 48.1997C88.2789 48.0375 88.3294 46.3472 88.5781 45.7489C89.5476 43.4279 96.4998 42.0511 98.792 43.1395L98.8101 43.1287ZM14.1178 75.569C13.6673 76.2178 17.1056 78.8992 17.7507 79.3137C21.8882 81.9843 27.1934 82.2078 31.3957 79.6597C29.2513 72.4515 19.7077 72.0947 14.1178 75.5654V75.569ZM39.7068 117.366C52.8977 115.463 58.967 96.1483 51.9678 85.8227C48.6016 80.8562 43.3253 79.2632 37.775 81.7392C34.8953 83.0223 34.7115 83.5413 33.9582 86.5759C33.8357 87.0733 33.9763 87.2391 34.4736 87.0877C35.8107 86.684 37.7281 84.6081 39.0869 84.9829C42.0746 87.3111 37.6993 89.3078 35.7351 90.1512C34.3006 90.7675 29.0783 92.7749 27.9863 91.7838C25.8671 89.8628 31.6336 86.5579 31.4138 84.208C29.3883 84.8459 27.215 85.055 25.0958 84.9433C23.4415 84.8532 19.5383 83.5269 18.4535 84.0278C16.81 84.7883 12.6437 91.3297 13.7646 92.8578C18.3994 89.0988 24.0218 89.0735 24.5876 96.0871C26.5086 96.1087 28.5521 95.7699 29.9325 97.4134C30.419 97.9936 30.6785 99.2406 31.0678 99.5218C31.5147 99.8461 32.4698 99.7668 33.0608 100.052C35.3422 101.136 36.546 102.859 36.4919 105.45C43.073 106.06 40.8853 113.059 39.7104 117.366H39.7068Z" stroke="#0F7D19" mask="url(#path-1-outside-1_58_571)"/>
<path d="M101.158 126.922C101.87 126.711 102.485 126.753 102.952 127.081C103.414 127.406 103.671 127.971 103.762 128.672L103.816 129.125C104.067 131.422 104.026 134.152 103.933 136.899C103.833 139.839 103.672 142.796 103.731 145.31L103.752 145.613C103.786 145.956 103.855 146.41 103.927 146.935C104.021 147.622 104.119 148.412 104.129 149.161C104.139 149.904 104.065 150.641 103.796 151.204C103.659 151.49 103.469 151.738 103.208 151.917C102.979 152.074 102.707 152.171 102.391 152.199L102.253 152.207C101.561 152.228 101.058 152.035 100.716 151.675C100.382 151.323 100.235 150.847 100.174 150.368C100.113 149.888 100.135 149.372 100.167 148.914C100.192 148.56 100.221 148.252 100.229 148.001V147.77C100.115 145.113 99.8847 141.597 99.7686 138.133C99.6523 134.666 99.6484 131.218 99.9902 128.671L100.029 128.408C100.073 128.144 100.137 127.877 100.26 127.642C100.431 127.313 100.709 127.057 101.158 126.924V126.922Z" fill="#0F7D19" stroke="#0F7D19" stroke-width="0.5"/>
<path d="M43.2373 41.8256C43.7438 41.7229 44.2354 42.0287 44.5771 42.3744C44.9486 42.7502 45.2443 43.2709 45.2822 43.6967L45.2861 43.8256C45.2775 44.1301 45.148 44.4608 44.9619 44.7924C44.745 45.1788 44.4294 45.604 44.0537 46.0492C43.302 46.9401 42.2844 47.942 41.2686 48.9193C40.248 49.9012 39.2299 50.8573 38.46 51.6693C38.0752 52.0751 37.7588 52.438 37.5381 52.7445C37.4278 52.8977 37.3445 53.0324 37.2891 53.1469C37.2608 53.2051 37.2421 53.2549 37.2295 53.2963L37.21 53.3969C37.1777 54.1238 37.6491 54.7644 38.3652 55.266C39.0766 55.7642 39.9759 56.0839 40.666 56.1761L40.9375 56.1996C41.2278 56.2132 41.5704 56.2005 41.9463 56.1869C42.4355 56.1692 42.9728 56.1509 43.4648 56.2025C43.9537 56.2539 44.4372 56.3781 44.7949 56.6761C45.1203 56.9473 45.3133 57.3376 45.3418 57.8636L45.3438 58.098C45.33 58.5019 45.1912 58.8373 44.9482 59.101C44.7092 59.3603 44.3827 59.536 44.0137 59.6517C43.2802 59.8817 42.3188 59.8918 41.3379 59.7826C40.351 59.6727 39.318 59.439 38.4277 59.1625C37.6541 58.9222 36.9708 58.6444 36.5166 58.3773L36.3359 58.2631C34.6153 57.0879 33.6026 55.8076 33.375 54.3744C33.1474 52.9405 33.7171 51.4266 34.9902 49.8109L35.248 49.4955C35.9337 48.6777 37.1829 47.3176 38.4473 45.9945C39.891 44.4838 41.3751 42.9991 42.0801 42.4135H42.0811L42.3174 42.2328C42.5611 42.0623 42.8296 41.9244 43.1406 41.8451L43.2305 41.8217L43.2373 41.8256Z" fill="#0F7D19" stroke="#0F7D19" stroke-width="0.5"/>
<path d="M58.6816 28.9188C60.8462 28.5998 63.2221 29.1124 65.3369 30.1483C67.4521 31.1844 69.3285 32.7552 70.4873 34.5829L70.6016 34.7733C71.1368 35.7313 71.175 36.7541 70.8057 37.4706C70.6071 37.8558 70.2879 38.1531 69.8691 38.2841C69.451 38.4148 68.963 38.3704 68.4414 38.1298V38.1288C68.0083 37.9293 67.6259 37.5568 67.2539 37.1278C67.0657 36.9107 66.8742 36.6714 66.6768 36.4247C66.4784 36.1768 66.2726 35.9201 66.0527 35.66C65.229 34.6858 64.2151 33.6894 62.7197 33.1229L62.4141 33.0155C61.0247 32.5642 60.3477 32.5932 59.7744 32.7352C59.4634 32.8123 59.2051 32.915 58.8359 33.0262C58.5694 33.1066 58.2711 33.1819 57.9102 33.2333L57.5273 33.2753C56.7983 33.3345 56.2287 33.1424 55.8691 32.7626C55.5094 32.3824 55.3986 31.8547 55.5088 31.327C55.7097 30.3645 56.6332 29.3878 58.2129 29.0155L58.1904 28.9921L58.6816 28.9188Z" fill="#0F7D19" stroke="#0F7D19" stroke-width="0.5"/>
<path d="M36.1104 25.4391C37.0602 25.2586 37.9202 25.1807 38.4277 25.235L38.4287 25.234C38.9149 25.2858 39.5437 25.487 40.1758 25.7799C40.8108 26.0741 41.4674 26.4697 42.0078 26.9254C42.5435 27.3772 42.9896 27.9089 43.1631 28.4801C43.251 28.7698 43.2692 29.0715 43.1904 29.3737C43.1192 29.6468 42.9714 29.9071 42.7461 30.152V30.1598L42.6729 30.233C42.2804 30.6254 41.8889 30.7973 41.4922 30.776C41.1089 30.7554 40.7737 30.5566 40.4854 30.3307C40.2025 30.1091 39.9121 29.815 39.6621 29.5914C39.4286 29.3826 39.2181 29.2223 39.0156 29.1373L38.9297 29.1061C37.7635 28.7418 36.4189 28.8949 35.2344 29.2926L35 29.3756C34.6945 29.4886 34.4039 29.6715 34.1045 29.8737C33.8143 30.0696 33.5058 30.2917 33.1973 30.4449C32.8835 30.6008 32.5374 30.7031 32.1621 30.6373C31.7858 30.5713 31.4228 30.3436 31.0596 29.9293V29.9283C30.736 29.5595 30.5626 29.1834 30.5439 28.8043C30.5253 28.424 30.6636 28.0766 30.8955 27.7701C31.3502 27.1694 32.1971 26.679 33.1318 26.2975C34.0766 25.9119 35.1529 25.6211 36.1104 25.4391Z" fill="#0F7D19" stroke="#0F7D19" stroke-width="0.5"/>
<path d="M32.5752 38.5663C33.8392 38.2504 34.8021 38.4778 35.4424 39.0487C36.1159 39.6494 36.3775 40.5825 36.3008 41.4882C36.2238 42.3955 35.8051 43.3162 35.0625 43.913C34.3104 44.5172 33.2522 44.7685 31.9531 44.3739V44.3729C31.3749 44.1967 30.9775 43.7688 30.7412 43.245C30.5063 42.7242 30.4239 42.0977 30.4707 41.4833C30.5176 40.8681 30.6957 40.2477 31 39.7362C31.3044 39.2245 31.7443 38.8079 32.3184 38.6366L32.5752 38.5663Z" fill="#0F7D19" stroke="#0F7D19" stroke-width="0.5"/>
<path d="M57.0488 42.186C57.9829 42.0389 58.7183 42.253 59.2412 42.7056C59.7913 43.182 60.0711 43.8928 60.1289 44.6226C60.1867 45.3532 60.0248 46.1285 59.6602 46.7612C59.3169 47.3566 58.7863 47.8374 58.083 48.0171L57.9404 48.0483C56.872 48.2537 56.042 48.0487 55.4629 47.5737C54.8888 47.1028 54.5974 46.3961 54.542 45.6665C54.4329 44.2288 55.2416 42.549 56.8594 42.2202L57.0488 42.186Z" fill="#0F7D19" stroke="#0F7D19" stroke-width="0.5"/>
</svg>
